<svg width="33" height="33" viewBox="0 0 33 33" fill="none" xmlns="http://www.w3.org/2000/svg">
<path d="M22.6667 8.65527H18.6667C17.9303 8.65527 17.3333 9.25223 17.3333 9.98861V13.9886H22.6667C22.8183 13.9852 22.9621 14.0558 23.0523 14.1778C23.1424 14.2998 23.1677 14.4579 23.12 14.6019L22.1333 17.5353C22.0424 17.8045 21.7908 17.9865 21.5067 17.9886H17.3333V27.9886C17.3333 28.3567 17.0348 28.6553 16.6667 28.6553H13.3333C12.9651 28.6553 12.6667 28.3567 12.6667 27.9886V17.9886H10.6667C10.2985 17.9886 10 17.6901 10 17.3219V14.6553C10 14.2871 10.2985 13.9886 10.6667 13.9886H12.6667V9.98861C12.6667 7.04309 15.0545 4.65527 18 4.65527H22.6667C23.0348 4.65527 23.3333 4.95375 23.3333 5.32194V7.98861C23.3333 8.35679 23.0348 8.65527 22.6667 8.65527Z" fill="black"/>
</svg>
