<svg width="33" height="33" viewBox="0 0 33 33" fill="none" xmlns="http://www.w3.org/2000/svg">
<path fill-rule="evenodd" clip-rule="evenodd" d="M22.0001 4.65527H11.3334C7.65152 4.65527 4.66675 7.64005 4.66675 11.3219V21.9886C4.66675 25.6705 7.65152 28.6553 11.3334 28.6553H22.0001C25.6819 28.6553 28.6667 25.6705 28.6667 21.9886V11.3219C28.6667 7.64005 25.6819 4.65527 22.0001 4.65527ZM26.3334 21.9886C26.3261 24.3787 24.3902 26.3146 22.0001 26.3219H11.3334C8.94321 26.3146 7.0074 24.3787 7.00008 21.9886V11.3219C7.0074 8.93174 8.94321 6.99593 11.3334 6.98861H22.0001C24.3902 6.99593 26.3261 8.93174 26.3334 11.3219V21.9886ZM23.0001 11.6553C23.7365 11.6553 24.3334 11.0583 24.3334 10.3219C24.3334 9.58557 23.7365 8.98861 23.0001 8.98861C22.2637 8.98861 21.6667 9.58557 21.6667 10.3219C21.6667 11.0583 22.2637 11.6553 23.0001 11.6553ZM16.6667 10.6553C13.353 10.6553 10.6667 13.3416 10.6667 16.6553C10.6667 19.969 13.353 22.6553 16.6667 22.6553C19.9805 22.6553 22.6667 19.969 22.6667 16.6553C22.6703 15.0629 22.0393 13.5347 20.9133 12.4087C19.7873 11.2827 18.2591 10.6517 16.6667 10.6553ZM13.0001 16.6553C13.0001 18.6803 14.6417 20.3219 16.6667 20.3219C18.6918 20.3219 20.3334 18.6803 20.3334 16.6553C20.3334 14.6302 18.6918 12.9886 16.6667 12.9886C14.6417 12.9886 13.0001 14.6302 13.0001 16.6553Z" fill="black"/>
</svg>
