<svg width="33" height="33" viewBox="0 0 33 33" fill="none" xmlns="http://www.w3.org/2000/svg">
<path fill-rule="evenodd" clip-rule="evenodd" d="M7.33341 4.65527H26.0001C27.4729 4.65527 28.6667 5.84918 28.6667 7.32194V25.9886C28.6667 27.4614 27.4729 28.6553 26.0001 28.6553H7.33341C5.86065 28.6553 4.66675 27.4614 4.66675 25.9886V7.32194C4.66675 5.84918 5.86065 4.65527 7.33341 4.65527ZM11.3334 24.6553C11.7016 24.6553 12.0001 24.3567 12.0001 23.9886V14.6553C12.0001 14.2871 11.7016 13.9886 11.3334 13.9886H9.33342C8.96523 13.9886 8.66675 14.2871 8.66675 14.6553V23.9886C8.66675 24.3567 8.96523 24.6553 9.33342 24.6553H11.3334ZM10.3334 12.6553C9.22884 12.6553 8.33341 11.7598 8.33341 10.6553C8.33341 9.5507 9.22884 8.65527 10.3334 8.65527C11.438 8.65527 12.3334 9.5507 12.3334 10.6553C12.3334 11.7598 11.438 12.6553 10.3334 12.6553ZM24.0001 24.6553C24.3682 24.6553 24.6667 24.3567 24.6667 23.9886V17.8553C24.7101 15.7363 23.1435 13.928 21.0401 13.6686C19.5694 13.5343 18.1445 14.2211 17.3334 15.4553V14.6553C17.3334 14.2871 17.0349 13.9886 16.6667 13.9886H14.6667C14.2986 13.9886 14.0001 14.2871 14.0001 14.6553V23.9886C14.0001 24.3567 14.2986 24.6553 14.6667 24.6553H16.6667C17.0349 24.6553 17.3334 24.3567 17.3334 23.9886V18.9886C17.3334 17.8841 18.2289 16.9886 19.3334 16.9886C20.4379 16.9886 21.3334 17.8841 21.3334 18.9886V23.9886C21.3334 24.3567 21.6319 24.6553 22.0001 24.6553H24.0001Z" fill="black"/>
</svg>
