<svg width="34" height="34" viewBox="0 0 34 34" fill="none" xmlns="http://www.w3.org/2000/svg">
<path d="M16.6668 3.27832C14.8429 3.27832 13.0368 3.63757 11.3517 4.33555C9.66663 5.03354 8.13552 6.05659 6.84581 7.3463C4.24113 9.95099 2.77783 13.4837 2.77783 17.1673C2.77783 23.3062 6.76396 28.5146 12.2779 30.3618C12.9723 30.4729 13.1946 30.0423 13.1946 29.6673V27.3201C9.34731 28.1534 8.52786 25.459 8.52786 25.459C7.88897 23.8479 6.98619 23.4173 6.98619 23.4173C5.72229 22.5562 7.08341 22.584 7.08341 22.584C8.4723 22.6812 9.20842 24.0145 9.20842 24.0145C10.4168 26.1257 12.4584 25.5007 13.2501 25.1673C13.3751 24.2645 13.7362 23.6534 14.1251 23.3062C11.0418 22.959 7.80563 21.7645 7.80563 16.4728C7.80563 14.9312 8.33342 13.695 9.2362 12.7089C9.09731 12.3617 8.61119 10.9172 9.37509 9.04224C9.37509 9.04224 10.5418 8.66724 13.1946 10.4589C14.2918 10.1534 15.4862 10.0006 16.6668 10.0006C17.8474 10.0006 19.0418 10.1534 20.139 10.4589C22.7918 8.66724 23.9585 9.04224 23.9585 9.04224C24.7224 10.9172 24.2363 12.3617 24.0974 12.7089C25.0002 13.695 25.5279 14.9312 25.5279 16.4728C25.5279 21.7784 22.2779 22.9451 19.1807 23.2923C19.6807 23.7229 20.139 24.5701 20.139 25.8618V29.6673C20.139 30.0423 20.3613 30.4868 21.0696 30.3618C26.5835 28.5007 30.5557 23.3062 30.5557 17.1673C30.5557 15.3434 30.1965 13.5373 29.4985 11.8522C28.8005 10.1671 27.7775 8.63601 26.4878 7.3463C25.1981 6.05659 23.667 5.03354 21.9819 4.33555C20.2968 3.63757 18.4907 3.27832 16.6668 3.27832Z" fill="white"/>
</svg>
