<svg width="33" height="33" viewBox="0 0 33 33" fill="none" xmlns="http://www.w3.org/2000/svg">
<path d="M28.6304 9.61181C28.0112 10.4378 27.2627 11.1584 26.4137 11.7456C26.4137 11.9614 26.4137 12.1772 26.4137 12.4049C26.4205 16.3234 24.8553 20.0807 22.0691 22.8346C19.2827 25.5885 15.5083 27.1085 11.5921 27.0538C9.32799 27.0614 7.0929 26.5445 5.0619 25.5434C4.95238 25.4955 4.88175 25.3873 4.88216 25.2677V25.1358C4.88216 24.9637 5.02164 24.8242 5.1937 24.8242C7.41923 24.7507 9.56536 23.9791 11.3285 22.6185C9.31404 22.5778 7.50159 21.3845 6.66747 19.5495C6.62535 19.4494 6.63846 19.3343 6.7021 19.2462C6.76572 19.1581 6.87067 19.1095 6.979 19.1181C7.59123 19.1795 8.20958 19.1226 8.80027 18.9502C6.57652 18.4886 4.90562 16.6425 4.66648 14.3829C4.65799 14.2745 4.70656 14.1695 4.79467 14.1058C4.88276 14.0422 4.99766 14.029 5.09784 14.0713C5.69459 14.3346 6.33879 14.4733 6.99099 14.4787C5.04246 13.1999 4.20082 10.7673 4.94207 8.5569C5.01859 8.34212 5.20242 8.18344 5.426 8.1392C5.64958 8.09494 5.87995 8.17165 6.03243 8.34113C8.66186 11.1396 12.2747 12.8072 16.1092 12.9923C16.0111 12.6004 15.9628 12.1976 15.9655 11.7936C16.0013 9.6749 17.3123 7.78756 19.2845 7.0151C21.2567 6.24266 23.4999 6.73798 24.964 8.2692C25.9619 8.07908 26.9267 7.74388 27.8276 7.27422C27.8936 7.23302 27.9773 7.23302 28.0433 7.27422C28.0845 7.34025 28.0845 7.42397 28.0433 7.49C27.6069 8.4893 26.8697 9.32744 25.9345 9.88753C26.7535 9.79256 27.558 9.59937 28.3309 9.31213C28.396 9.26784 28.4815 9.26784 28.5465 9.31213C28.6011 9.33706 28.6419 9.38476 28.658 9.4425C28.6741 9.50025 28.664 9.56218 28.6304 9.61181Z" fill="black"/>
</svg>
